#tb 0: 1/1000
0,          0,          0,        0,      792, 3b16847e60786706fc339abc452746ff
0,         33,         33,        0,      792, 365a5951cb127d6df183fe5d5000f493
0,         66,         66,        0,      792, 6d4bceb815ca7717c4a3f86a6670703a
0,        100,        100,        0,      792, 5a0a03d4788934285448c85788ae8d71
0,        133,        133,        0,      792, 8712f9a82d07447e7a0d0a37ddc3858d
0,        166,        166,        0,      792, cff32e6c183c16962207a86d7c6cf0a0
0,        200,        200,        0,      792, dc933d90f87110651d7efb39854d3d46
0,        233,        233,        0,      792, d1299562a022521f0c3cb30668f83b6d
0,        266,        266,        0,      792, 5054254ca125d7c7e6df4001397170cd
0,        300,        300,        0,      792, a6bd7c7c0b02afa8d25f911ec847c61a
